Coordinates
version=1
nRows=13
nColumns=38
inDegrees=no

Units are S.I. units (second, meters, Newtons, ...)
If the header above contains a line with 'inDegrees', this indicates whether rotational values are in degrees (yes) or radians (no).

endheader
time	pelvis_tilt	pelvis_list	pelvis_rotation	pelvis_tx	pelvis_ty	pelvis_tz	hip_flexion_r	hip_adduction_r	hip_rotation_r	knee_angle_r	ankle_angle_r	subtalar_angle_r	mtp_angle_r	hip_flexion_l	hip_adduction_l	hip_rotation_l	knee_angle_l	ankle_angle_l	subtalar_angle_l	mtp_angle_l	lumbar_extension	lumbar_bending	lumbar_rotation	arm_flex_r	arm_add_r	arm_rot_r	elbow_flex_r	pro_sup_r	wrist_flex_r	wrist_dev_r	arm_flex_l	arm_add_l	arm_rot_l	elbow_flex_l	pro_sup_l	wrist_flex_l	wrist_dev_l
1.37	-2.83892	1.54134	1.15473	0.877594	0.254622	0.925464	-0.0554703	0.021673	0.000303598	0.600208	0.187687	0	0	0.518823	-0.13936	-0.383505	0.455033	0.157757	0	0	-0.0601871	-0.00137713	0.0246154	-0.227723	-0.0429347	-0.513493	0.330086	1.09013	0	0	-0.341223	-0.24692	0.311174	0.666132	0.664653	0	0
1.38	-2.81587	1.54217	1.12738	0.87853	0.242519	0.9247	-0.0425513	0.0160717	-0.00240715	0.646909	0.171193	0	0	0.513655	-0.144067	-0.391789	0.477114	0.168213	0	0	-0.0544774	-0.00278824	0.0326373	-0.236915	-0.0429305	-0.521555	0.328877	1.0926	0	0	-0.352545	-0.247679	0.306193	0.673358	0.664394	0	0
1.39	-2.8391	1.54337	1.14879	0.8799	0.230293	0.923922	-0.026261	0.00736578	-0.0112274	0.698273	0.149559	0	0	0.505628	-0.143641	-0.398769	0.489663	0.167846	0	0	-0.0482857	-0.00537009	0.0372999	-0.246018	-0.0427548	-0.529622	0.328217	1.09584	0	0	-0.364331	-0.248569	0.301512	0.679805	0.663511	0	0
1.4	-3.00586	1.54501	1.31675	0.881774	0.218215	0.92318	-0.00488008	-0.00713735	-0.0256724	0.755871	0.121437	0	0	0.495585	-0.134994	-0.402977	0.491693	0.152137	0	0	-0.0415312	-0.0121199	0.0376254	-0.253218	-0.0419212	-0.538113	0.326251	1.09724	0	0	-0.376641	-0.251036	0.299745	0.688394	0.65073	0	0
1.41	2.9832	1.54668	1.61644	0.884112	0.206543	0.922757	0.0190573	-0.0255628	-0.0442017	0.817322	0.0876337	0	0	0.485172	-0.121173	-0.403532	0.491659	0.131272	0	0	-0.0370512	-0.0224046	0.032111	-0.258193	-0.0410179	-0.53545	0.323762	1.08673	0	0	-0.38754	-0.2538	0.296148	0.694929	0.647132	0	0
1.42	2.62339	1.54632	1.98034	0.887339	0.19543	0.922733	0.0468896	-0.0559562	-0.0647672	0.881008	0.0539159	0	0	0.478196	-0.101073	-0.396625	0.498105	0.112056	0	0	-0.0350181	-0.0329958	0.0251007	-0.259477	-0.0410797	-0.529287	0.3196	1.07355	0	0	-0.397784	-0.255983	0.291458	0.701608	0.641387	0	0
1.43	2.23397	1.54305	2.3793	0.889508	0.184216	0.922885	0.0742162	-0.0776031	-0.0785569	0.945524	0.00890566	0	0	0.470019	-0.0854009	-0.394355	0.50864	0.106005	0	0	-0.0364994	-0.0468799	0.0158479	-0.252777	-0.0353923	-0.579955	0.303365	1.14201	0	0	-0.403555	-0.260436	0.287893	0.704471	0.647278	0	0
1.44	1.94105	1.53643	2.682	0.891808	0.173182	0.923265	0.102739	-0.098237	-0.0877518	1.00907	-0.0439015	0	0	0.460687	-0.0694174	-0.387837	0.518895	0.104596	0	0	-0.037946	-0.0620956	0.0032748	-0.260892	-0.0358561	-0.505123	0.308933	1.03843	0	0	-0.411826	-0.267191	0.28756	0.711806	0.637233	0	0
1.45	1.70759	1.52994	2.92379	0.893991	0.162927	0.924158	0.128529	-0.115409	-0.0923564	1.0686	-0.099088	0	0	0.447048	-0.0566326	-0.383419	0.52777	0.104573	0	0	-0.0434809	-0.0748941	-0.00492767	-0.259397	-0.0309006	-0.5162	0.300159	1.05351	0	0	-0.415711	-0.275092	0.292021	0.716023	0.633685	0	0
1.46	1.54058	1.52284	3.09746	0.895919	0.152343	0.924927	0.154707	-0.130656	-0.0931494	1.12453	-0.154717	0	0	0.432164	-0.0453702	-0.380453	0.534763	0.103885	0	0	-0.0495175	-0.0858083	-0.0111485	-0.258507	-0.0269457	-0.524898	0.292515	1.06411	0	0	-0.418539	-0.282945	0.298272	0.72052	0.629421	0	0
1.47	1.42062	1.51603	-3.0605	0.897787	0.142037	0.925727	0.181046	-0.142911	-0.0903596	1.17636	-0.208673	0	0	0.416466	-0.0354113	-0.378776	0.539828	0.104425	0	0	-0.0557186	-0.0945743	-0.0156297	-0.258345	-0.0238359	-0.532553	0.286358	1.07449	0	0	-0.419401	-0.290735	0.305993	0.724416	0.62327	0	0
1.48	1.33051	1.50945	-2.96617	0.899583	0.132028	0.926579	0.20696	-0.152559	-0.0845737	1.22302	-0.260072	0	0	0.399917	-0.0255636	-0.377608	0.542369	0.107593	0	0	-0.0620772	-0.101705	-0.0184359	-0.258824	-0.0213004	-0.541623	0.282649	1.08703	0	0	-0.417636	-0.298561	0.316839	0.726469	0.614132	0	0
1.49	1.2585	1.5032	-2.891	0.901505	0.122428	0.92762	0.232101	-0.158935	-0.0759401	1.26502	-0.302597	0	0	0.382014	-0.0156926	-0.375358	0.541814	0.112894	0	0	-0.0686101	-0.107522	-0.0201292	-0.259803	-0.0192862	-0.550029	0.281657	1.0985	0	0	-0.413925	-0.305712	0.328253	0.727002	0.605357	0	0
